# xmcd CD database file
#
# Track frame offsets:
#	183
#	15288
#	26478
#	36045
#	46500
#	62773
#	77483
#	92748
#	104705
#	117475
#	132903
#	138613
#	149745
#	163568
#	181030
#	194335
#	207723
#	217245
#	227270
#	240030
#	255355
#	269080
#	277568
#	292253
#	307025
#
# Disc length: 4270 seconds
#
# Revision: 3
# Processed by: cddbd v1.5.2PL0 Copyright (c) Steve Scherf et al.
# Submitted via: CDex 1.51
#
DISCID=6710ac19
DTITLE=Various Artist - Top Country - Sunday In Nashville
DYEAR=1996
DGENRE=Country
TTITLE0=The Old Rugged Cross - Ray Price
TTITLE1=What Would You Do (If Jesus Came To Your House) - Porter Wagoner
TTITLE2=Turn Your Radio On - Skeeter Davis
TTITLE3=There Is Power In The Blood - Don Gibson
TTITLE4=Whispering Hope - Jim Ed Brown
TTITLE5=Jesus Is Your Ticket To Heaven - Connie Smith
TTITLE6=Amen - Lee Greenwood
TTITLE7=Softly And Tenderly - Johnny Russell
TTITLE8=Just A Closer Walk With Thee - Patsy Cline
TTITLE9=You Light Up My Life - Margo Smith
TTITLE10=Rock Of Ages - Narvel Felts
TTITLE11=Standing On The Promises - Jeanne Pruett
TTITLE12=Little Delta Church - Johnny Darrell
TTITLE13=One Day At A Time - Lee Greenwood
TTITLE14=What A Friend We Have In Jesus - Ray Price
TTITLE15=Life's Railway To Heaven - Lacy J Dalton
TTITLE16=In The Sweet Bye And Bye - Merle Kilgore
TTITLE17=Church In The Wildwood - David Houston
TTITLE18=Uncloudy Day - Jeanne Pruett
TTITLE19=Why Me, Lord - Jack Greene
TTITLE20=Baptism Of Jesse Taylor - Johnny Russell
TTITLE21=Leaning On The Everlasting Arms - Carl and Pearl Butler
TTITLE22=Put Your Hand In The Hand - Sandy Posey
TTITLE23=Peace In The Valley - Kenny Price
TTITLE24=Amazing Grace - Lee Greenwood
EXTD=YEAR: 1996
EXTT0=
EXTT1=
EXTT2=
EXTT3=
EXTT4=
EXTT5=
EXTT6=
EXTT7=
EXTT8=
EXTT9=
EXTT10=
EXTT11=
EXTT12=
EXTT13=
EXTT14=
EXTT15=
EXTT16=
EXTT17=
EXTT18=
EXTT19=
EXTT20=
EXTT21=
EXTT22=
EXTT23=
EXTT24=
PLAYORDER=
